<svg xmlns="http://www.w3.org/2000/svg" viewBox="0 0 1200 1600" role="img" aria-label="Locomotion loop placeholder thumbnail">
  <rect width="1200" height="1600" fill="#0b1017"/>
  <path d="M140 1160c120-170 258-252 414-246 186 8 278 138 446 132 50-2 92-17 126-44v394H140z" fill="#162433"/>
  <g fill="none" stroke-linecap="round" stroke-width="26">
    <path d="M160 720c160-148 322-148 486 0s326 148 486 0" stroke="#f6ae5a"/>
    <path d="M160 870c160-148 322-148 486 0s326 148 486 0" stroke="#6aa9b8" opacity=".82"/>
    <path d="M246 1038h276M690 1038h276" stroke="#fff7ec" opacity=".7"/>
  </g>
  <circle cx="262" cy="1038" r="34" fill="#f6ae5a"/>
  <circle cx="944" cy="1038" r="34" fill="#f6ae5a"/>
  <text x="88" y="1428" fill="#fff7ec" font-family="Arial, sans-serif" font-size="78" font-weight="800">LOCOMOTION LOOP</text>
</svg>
